<svg xmlns="http://www.w3.org/2000/svg" width="960" height="720" viewBox="0 0 960 720"><polyline fill="none" stroke="#2196F3" stroke-width="4" points="110 607 222 551 364 457 929 59" opacity="1"/><polyline fill="none" stroke="#00BCD4" stroke-width="4" points="110 621 222 600 364 574 929 416" opacity="1"/><polyline fill="none" stroke="#4CAF50" stroke-width="4" points="110 619 222 590 364 552 929 395" opacity="1"/><polyline fill="none" stroke="#F44336" stroke-width="4" points="110 626 222 620 364 612 929 577" opacity="1"/><line x1="110" x2="929" y1="629" y2="629" stroke="#000" stroke-width="1" opacity=".1"/><line x1="110" x2="929" y1="617" y2="617" stroke="#000" stroke-width="1" opacity=".1"/><line x1="110" x2="929" y1="605" y2="605" stroke="#000" stroke-width="1" opacity=".1"/><line x1="110" x2="929" y1="593" y2="593" stroke="#000" stroke-width="1" opacity=".1"/><line x1="110" x2="929" y1="581" y2="581" stroke="#000" stroke-width="1" opacity=".1"/><line x1="110" x2="929" y1="569" y2="569" stroke="#000" stroke-width="1" opacity=".1"/><line x1="110" x2="929" y1="557" y2="557" stroke="#000" stroke-width="1" opacity=".1"/><line x1="110" x2="929" y1="545" y2="545" stroke="#000" stroke-width="1" opacity=".1"/><line x1="110" x2="929" y1="533" y2="533" stroke="#000" stroke-width="1" opacity=".1"/><line x1="110" x2="929" y1="521" y2="521" stroke="#000" stroke-width="1" opacity=".1"/><line x1="110" x2="929" y1="509" y2="509" stroke="#000" stroke-width="1" opacity=".1"/><line x1="110" x2="929" y1="497" y2="497" stroke="#000" stroke-width="1" opacity=".1"/><line x1="110" x2="929" y1="485" y2="485" stroke="#000" stroke-width="1" opacity=".1"/><line x1="110" x2="929" y1="473" y2="473" stroke="#000" stroke-width="1" opacity=".1"/><line x1="110" x2="929" y1="461" y2="461" stroke="#000" stroke-width="1" opacity=".1"/><line x1="110" x2="929" y1="449" y2="449" stroke="#000" stroke-width="1" opacity=".1"/><line x1="110" x2="929" y1="437" y2="437" stroke="#000" stroke-width="1" opacity=".1"/><line x1="110" x2="929" y1="425" y2="425" stroke="#000" stroke-width="1" opacity=".1"/><line x1="110" x2="929" y1="413" y2="413" stroke="#000" stroke-width="1" opacity=".1"/><line x1="110" x2="929" y1="401" y2="401" stroke="#000" stroke-width="1" opacity=".1"/><line x1="110" x2="929" y1="389" y2="389" stroke="#000" stroke-width="1" opacity=".1"/><line x1="110" x2="929" y1="377" y2="377" stroke="#000" stroke-width="1" opacity=".1"/><line x1="110" x2="929" y1="365" y2="365" stroke="#000" stroke-width="1" opacity=".1"/><line x1="110" x2="929" y1="353" y2="353" stroke="#000" stroke-width="1" opacity=".1"/><line x1="110" x2="929" y1="341" y2="341" stroke="#000" stroke-width="1" opacity=".1"/><line x1="110" x2="929" y1="329" y2="329" stroke="#000" stroke-width="1" opacity=".1"/><line x1="110" x2="929" y1="317" y2="317" stroke="#000" stroke-width="1" opacity=".1"/><line x1="110" x2="929" y1="305" y2="305" stroke="#000" stroke-width="1" opacity=".1"/><line x1="110" x2="929" y1="293" y2="293" stroke="#000" stroke-width="1" opacity=".1"/><line x1="110" x2="929" y1="281" y2="281" stroke="#000" stroke-width="1" opacity=".1"/><line x1="110" x2="929" y1="269" y2="269" stroke="#000" stroke-width="1" opacity=".1"/><line x1="110" x2="929" y1="257" y2="257" stroke="#000" stroke-width="1" opacity=".1"/><line x1="110" x2="929" y1="245" y2="245" stroke="#000" stroke-width="1" opacity=".1"/><line x1="110" x2="929" y1="233" y2="233" stroke="#000" stroke-width="1" opacity=".1"/><line x1="110" x2="929" y1="221" y2="221" stroke="#000" stroke-width="1" opacity=".1"/><line x1="110" x2="929" y1="209" y2="209" stroke="#000" stroke-width="1" opacity=".1"/><line x1="110" x2="929" y1="197" y2="197" stroke="#000" stroke-width="1" opacity=".1"/><line x1="110" x2="929" y1="185" y2="185" stroke="#000" stroke-width="1" opacity=".1"/><line x1="110" x2="929" y1="173" y2="173" stroke="#000" stroke-width="1" opacity=".1"/><line x1="110" x2="929" y1="161" y2="161" stroke="#000" stroke-width="1" opacity=".1"/><line x1="110" x2="929" y1="149" y2="149" stroke="#000" stroke-width="1" opacity=".1"/><line x1="110" x2="929" y1="137" y2="137" stroke="#000" stroke-width="1" opacity=".1"/><line x1="110" x2="929" y1="125" y2="125" stroke="#000" stroke-width="1" opacity=".1"/><line x1="110" x2="929" y1="113" y2="113" stroke="#000" stroke-width="1" opacity=".1"/><line x1="110" x2="929" y1="101" y2="101" stroke="#000" stroke-width="1" opacity=".1"/><line x1="110" x2="929" y1="89" y2="89" stroke="#000" stroke-width="1" opacity=".1"/><line x1="110" x2="929" y1="77" y2="77" stroke="#000" stroke-width="1" opacity=".1"/><line x1="110" x2="929" y1="65" y2="65" stroke="#000" stroke-width="1" opacity=".1"/><line x1="110" x2="929" y1="53" y2="53" stroke="#000" stroke-width="1" opacity=".1"/><line x1="110" x2="929" y1="41" y2="41" stroke="#000" stroke-width="1" opacity=".1"/><text x="30" y="330" fill="#000" dy=".76em" font-family="ui-sans-serif, system-ui, -apple-system, BlinkMacSystemFont, &quot;Segoe UI&quot;, Roboto, &quot;Helvetica Neue&quot;, Arial, &quot;Noto Sans&quot;, sans-serif, &quot;Apple Color Emoji&quot;, &quot;Segoe UI Emoji&quot;, &quot;Segoe UI Symbol&quot;, &quot;Noto Color Emoji&quot;" font-size="19.355" opacity="1" text-anchor="middle" transform="rotate(270, 30, 330)">Mean time — lower is better</text><text x="520" y="690" fill="#000" dy="-.5ex" font-family="ui-sans-serif, system-ui, -apple-system, BlinkMacSystemFont, &quot;Segoe UI&quot;, Roboto, &quot;Helvetica Neue&quot;, Arial, &quot;Noto Sans&quot;, sans-serif, &quot;Apple Color Emoji&quot;, &quot;Segoe UI Emoji&quot;, &quot;Segoe UI Symbol&quot;, &quot;Noto Color Emoji&quot;" font-size="19.355" opacity="1" text-anchor="middle">Number of modules</text><line x1="110" x2="110" y1="629" y2="30" stroke="#000" stroke-width="1" opacity=".2"/><line x1="929" x2="929" y1="629" y2="30" stroke="#000" stroke-width="1" opacity=".2"/><line x1="222" x2="222" y1="629" y2="30" stroke="#000" stroke-width="1" opacity=".2"/><line x1="364" x2="364" y1="629" y2="30" stroke="#000" stroke-width="1" opacity=".2"/><line x1="110" x2="929" y1="629" y2="629" stroke="#000" stroke-width="1" opacity=".2"/><line x1="110" x2="929" y1="509" y2="509" stroke="#000" stroke-width="1" opacity=".2"/><line x1="110" x2="929" y1="389" y2="389" stroke="#000" stroke-width="1" opacity=".2"/><line x1="110" x2="929" y1="269" y2="269" stroke="#000" stroke-width="1" opacity=".2"/><line x1="110" x2="929" y1="149" y2="149" stroke="#000" stroke-width="1" opacity=".2"/><polyline fill="none" stroke="#000" stroke-width="1" points="109 30 109 629" opacity="1"/><text x="100" y="629" fill="#000" dy=".5ex" font-family="ui-sans-serif, system-ui, -apple-system, BlinkMacSystemFont, &quot;Segoe UI&quot;, Roboto, &quot;Helvetica Neue&quot;, Arial, &quot;Noto Sans&quot;, sans-serif, &quot;Apple Color Emoji&quot;, &quot;Segoe UI Emoji&quot;, &quot;Segoe UI Symbol&quot;, &quot;Noto Color Emoji&quot;" font-size="16.129" opacity=".75" text-anchor="end">0s</text><polyline fill="none" stroke="#000" stroke-width="1" points="104 629 109 629" opacity="1"/><text x="100" y="509" fill="#000" dy=".5ex" font-family="ui-sans-serif, system-ui, -apple-system, BlinkMacSystemFont, &quot;Segoe UI&quot;, Roboto, &quot;Helvetica Neue&quot;, Arial, &quot;Noto Sans&quot;, sans-serif, &quot;Apple Color Emoji&quot;, &quot;Segoe UI Emoji&quot;, &quot;Segoe UI Symbol&quot;, &quot;Noto Color Emoji&quot;" font-size="16.129" opacity=".75" text-anchor="end">50s</text><polyline fill="none" stroke="#000" stroke-width="1" points="104 509 109 509" opacity="1"/><text x="100" y="389" fill="#000" dy=".5ex" font-family="ui-sans-serif, system-ui, -apple-system, BlinkMacSystemFont, &quot;Segoe UI&quot;, Roboto, &quot;Helvetica Neue&quot;, Arial, &quot;Noto Sans&quot;, sans-serif, &quot;Apple Color Emoji&quot;, &quot;Segoe UI Emoji&quot;, &quot;Segoe UI Symbol&quot;, &quot;Noto Color Emoji&quot;" font-size="16.129" opacity=".75" text-anchor="end">100s</text><polyline fill="none" stroke="#000" stroke-width="1" points="104 389 109 389" opacity="1"/><text x="100" y="269" fill="#000" dy=".5ex" font-family="ui-sans-serif, system-ui, -apple-system, BlinkMacSystemFont, &quot;Segoe UI&quot;, Roboto, &quot;Helvetica Neue&quot;, Arial, &quot;Noto Sans&quot;, sans-serif, &quot;Apple Color Emoji&quot;, &quot;Segoe UI Emoji&quot;, &quot;Segoe UI Symbol&quot;, &quot;Noto Color Emoji&quot;" font-size="16.129" opacity=".75" text-anchor="end">150s</text><polyline fill="none" stroke="#000" stroke-width="1" points="104 269 109 269" opacity="1"/><text x="100" y="149" fill="#000" dy=".5ex" font-family="ui-sans-serif, system-ui, -apple-system, BlinkMacSystemFont, &quot;Segoe UI&quot;, Roboto, &quot;Helvetica Neue&quot;, Arial, &quot;Noto Sans&quot;, sans-serif, &quot;Apple Color Emoji&quot;, &quot;Segoe UI Emoji&quot;, &quot;Segoe UI Symbol&quot;, &quot;Noto Color Emoji&quot;" font-size="16.129" opacity=".75" text-anchor="end">200s</text><polyline fill="none" stroke="#000" stroke-width="1" points="104 149 109 149" opacity="1"/><polyline fill="none" stroke="#000" stroke-width="1" points="110 630 929 630" opacity="1"/><text x="110" y="640" fill="#000" dy=".76em" font-family="ui-sans-serif, system-ui, -apple-system, BlinkMacSystemFont, &quot;Segoe UI&quot;, Roboto, &quot;Helvetica Neue&quot;, Arial, &quot;Noto Sans&quot;, sans-serif, &quot;Apple Color Emoji&quot;, &quot;Segoe UI Emoji&quot;, &quot;Segoe UI Symbol&quot;, &quot;Noto Color Emoji&quot;" font-size="16.129" opacity=".75" text-anchor="middle">1,000</text><polyline fill="none" stroke="#000" stroke-width="1" points="110 630 110 635" opacity="1"/><text x="929" y="640" fill="#000" dy=".76em" font-family="ui-sans-serif, system-ui, -apple-system, BlinkMacSystemFont, &quot;Segoe UI&quot;, Roboto, &quot;Helvetica Neue&quot;, Arial, &quot;Noto Sans&quot;, sans-serif, &quot;Apple Color Emoji&quot;, &quot;Segoe UI Emoji&quot;, &quot;Segoe UI Symbol&quot;, &quot;Noto Color Emoji&quot;" font-size="16.129" opacity=".75" text-anchor="middle">30,000</text><polyline fill="none" stroke="#000" stroke-width="1" points="929 630 929 635" opacity="1"/><text x="222" y="640" fill="#000" dy=".76em" font-family="ui-sans-serif, system-ui, -apple-system, BlinkMacSystemFont, &quot;Segoe UI&quot;, Roboto, &quot;Helvetica Neue&quot;, Arial, &quot;Noto Sans&quot;, sans-serif, &quot;Apple Color Emoji&quot;, &quot;Segoe UI Emoji&quot;, &quot;Segoe UI Symbol&quot;, &quot;Noto Color Emoji&quot;" font-size="16.129" opacity=".75" text-anchor="middle">5,000</text><polyline fill="none" stroke="#000" stroke-width="1" points="222 630 222 635" opacity="1"/><text x="364" y="640" fill="#000" dy=".76em" font-family="ui-sans-serif, system-ui, -apple-system, BlinkMacSystemFont, &quot;Segoe UI&quot;, Roboto, &quot;Helvetica Neue&quot;, Arial, &quot;Noto Sans&quot;, sans-serif, &quot;Apple Color Emoji&quot;, &quot;Segoe UI Emoji&quot;, &quot;Segoe UI Symbol&quot;, &quot;Noto Color Emoji&quot;" font-size="16.129" opacity=".75" text-anchor="middle">10,000</text><polyline fill="none" stroke="#000" stroke-width="1" points="364 630 364 635" opacity="1"/><rect width="175" height="123" x="115" y="35" fill="#FFF" stroke="none" opacity="1"/><rect width="175" height="123" x="115" y="35" fill="none" stroke="#000" opacity=".2"/><text x="161" y="51" fill="#000" dy=".76em" font-family="ui-sans-serif, system-ui, -apple-system, BlinkMacSystemFont, &quot;Segoe UI&quot;, Roboto, &quot;Helvetica Neue&quot;, Arial, &quot;Noto Sans&quot;, sans-serif, &quot;Apple Color Emoji&quot;, &quot;Segoe UI Emoji&quot;, &quot;Segoe UI Symbol&quot;, &quot;Noto Color Emoji&quot;" font-size="16.129" opacity="1" text-anchor="start">Next.js 11 SSR</text><text x="161" y="76" fill="#000" dy=".76em" font-family="ui-sans-serif, system-ui, -apple-system, BlinkMacSystemFont, &quot;Segoe UI&quot;, Roboto, &quot;Helvetica Neue&quot;, Arial, &quot;Noto Sans&quot;, sans-serif, &quot;Apple Color Emoji&quot;, &quot;Segoe UI Emoji&quot;, &quot;Segoe UI Symbol&quot;, &quot;Noto Color Emoji&quot;" font-size="16.129" opacity="1" text-anchor="start">Next.js 12 SSR</text><text x="161" y="101" fill="#000" dy=".76em" font-family="ui-sans-serif, system-ui, -apple-system, BlinkMacSystemFont, &quot;Segoe UI&quot;, Roboto, &quot;Helvetica Neue&quot;, Arial, &quot;Noto Sans&quot;, sans-serif, &quot;Apple Color Emoji&quot;, &quot;Segoe UI Emoji&quot;, &quot;Segoe UI Symbol&quot;, &quot;Noto Color Emoji&quot;" font-size="16.129" opacity="1" text-anchor="start">Vite SWC CSR</text><text x="161" y="126" fill="#000" dy=".76em" font-family="ui-sans-serif, system-ui, -apple-system, BlinkMacSystemFont, &quot;Segoe UI&quot;, Roboto, &quot;Helvetica Neue&quot;, Arial, &quot;Noto Sans&quot;, sans-serif, &quot;Apple Color Emoji&quot;, &quot;Segoe UI Emoji&quot;, &quot;Segoe UI Symbol&quot;, &quot;Noto Color Emoji&quot;" font-size="16.129" opacity="1" text-anchor="start">Turbopack SSR</text><polyline fill="none" stroke="#2196F3" stroke-width="4" points="131 59 151 59" opacity="1"/><polyline fill="none" stroke="#00BCD4" stroke-width="4" points="131 84 151 84" opacity="1"/><polyline fill="none" stroke="#4CAF50" stroke-width="4" points="131 109 151 109" opacity="1"/><polyline fill="none" stroke="#F44336" stroke-width="4" points="131 134 151 134" opacity="1"/></svg>