<svg xmlns="http://www.w3.org/2000/svg" width="960" height="720" viewBox="0 0 960 720"><polyline fill="none" stroke="#4CAF50" stroke-width="4" points="110 181 222 160 364 146 929 59" opacity="1"/><polyline fill="none" stroke="#F44336" stroke-width="4" points="110 549 222 528 364 531 929 533" opacity="1"/><line x1="110" x2="929" y1="629" y2="629" stroke="#FFF" stroke-width="1" opacity=".1"/><line x1="110" x2="929" y1="621" y2="621" stroke="#FFF" stroke-width="1" opacity=".1"/><line x1="110" x2="929" y1="612" y2="612" stroke="#FFF" stroke-width="1" opacity=".1"/><line x1="110" x2="929" y1="604" y2="604" stroke="#FFF" stroke-width="1" opacity=".1"/><line x1="110" x2="929" y1="595" y2="595" stroke="#FFF" stroke-width="1" opacity=".1"/><line x1="110" x2="929" y1="587" y2="587" stroke="#FFF" stroke-width="1" opacity=".1"/><line x1="110" x2="929" y1="578" y2="578" stroke="#FFF" stroke-width="1" opacity=".1"/><line x1="110" x2="929" y1="570" y2="570" stroke="#FFF" stroke-width="1" opacity=".1"/><line x1="110" x2="929" y1="561" y2="561" stroke="#FFF" stroke-width="1" opacity=".1"/><line x1="110" x2="929" y1="552" y2="552" stroke="#FFF" stroke-width="1" opacity=".1"/><line x1="110" x2="929" y1="544" y2="544" stroke="#FFF" stroke-width="1" opacity=".1"/><line x1="110" x2="929" y1="535" y2="535" stroke="#FFF" stroke-width="1" opacity=".1"/><line x1="110" x2="929" y1="527" y2="527" stroke="#FFF" stroke-width="1" opacity=".1"/><line x1="110" x2="929" y1="518" y2="518" stroke="#FFF" stroke-width="1" opacity=".1"/><line x1="110" x2="929" y1="510" y2="510" stroke="#FFF" stroke-width="1" opacity=".1"/><line x1="110" x2="929" y1="501" y2="501" stroke="#FFF" stroke-width="1" opacity=".1"/><line x1="110" x2="929" y1="493" y2="493" stroke="#FFF" stroke-width="1" opacity=".1"/><line x1="110" x2="929" y1="484" y2="484" stroke="#FFF" stroke-width="1" opacity=".1"/><line x1="110" x2="929" y1="475" y2="475" stroke="#FFF" stroke-width="1" opacity=".1"/><line x1="110" x2="929" y1="467" y2="467" stroke="#FFF" stroke-width="1" opacity=".1"/><line x1="110" x2="929" y1="458" y2="458" stroke="#FFF" stroke-width="1" opacity=".1"/><line x1="110" x2="929" y1="450" y2="450" stroke="#FFF" stroke-width="1" opacity=".1"/><line x1="110" x2="929" y1="441" y2="441" stroke="#FFF" stroke-width="1" opacity=".1"/><line x1="110" x2="929" y1="433" y2="433" stroke="#FFF" stroke-width="1" opacity=".1"/><line x1="110" x2="929" y1="424" y2="424" stroke="#FFF" stroke-width="1" opacity=".1"/><line x1="110" x2="929" y1="415" y2="415" stroke="#FFF" stroke-width="1" opacity=".1"/><line x1="110" x2="929" y1="407" y2="407" stroke="#FFF" stroke-width="1" opacity=".1"/><line x1="110" x2="929" y1="398" y2="398" stroke="#FFF" stroke-width="1" opacity=".1"/><line x1="110" x2="929" y1="390" y2="390" stroke="#FFF" stroke-width="1" opacity=".1"/><line x1="110" x2="929" y1="381" y2="381" stroke="#FFF" stroke-width="1" opacity=".1"/><line x1="110" x2="929" y1="373" y2="373" stroke="#FFF" stroke-width="1" opacity=".1"/><line x1="110" x2="929" y1="364" y2="364" stroke="#FFF" stroke-width="1" opacity=".1"/><line x1="110" x2="929" y1="356" y2="356" stroke="#FFF" stroke-width="1" opacity=".1"/><line x1="110" x2="929" y1="347" y2="347" stroke="#FFF" stroke-width="1" opacity=".1"/><line x1="110" x2="929" y1="338" y2="338" stroke="#FFF" stroke-width="1" opacity=".1"/><line x1="110" x2="929" y1="330" y2="330" stroke="#FFF" stroke-width="1" opacity=".1"/><line x1="110" x2="929" y1="321" y2="321" stroke="#FFF" stroke-width="1" opacity=".1"/><line x1="110" x2="929" y1="313" y2="313" stroke="#FFF" stroke-width="1" opacity=".1"/><line x1="110" x2="929" y1="304" y2="304" stroke="#FFF" stroke-width="1" opacity=".1"/><line x1="110" x2="929" y1="296" y2="296" stroke="#FFF" stroke-width="1" opacity=".1"/><line x1="110" x2="929" y1="287" y2="287" stroke="#FFF" stroke-width="1" opacity=".1"/><line x1="110" x2="929" y1="279" y2="279" stroke="#FFF" stroke-width="1" opacity=".1"/><line x1="110" x2="929" y1="270" y2="270" stroke="#FFF" stroke-width="1" opacity=".1"/><line x1="110" x2="929" y1="261" y2="261" stroke="#FFF" stroke-width="1" opacity=".1"/><line x1="110" x2="929" y1="253" y2="253" stroke="#FFF" stroke-width="1" opacity=".1"/><line x1="110" x2="929" y1="244" y2="244" stroke="#FFF" stroke-width="1" opacity=".1"/><line x1="110" x2="929" y1="236" y2="236" stroke="#FFF" stroke-width="1" opacity=".1"/><line x1="110" x2="929" y1="227" y2="227" stroke="#FFF" stroke-width="1" opacity=".1"/><line x1="110" x2="929" y1="219" y2="219" stroke="#FFF" stroke-width="1" opacity=".1"/><line x1="110" x2="929" y1="210" y2="210" stroke="#FFF" stroke-width="1" opacity=".1"/><line x1="110" x2="929" y1="201" y2="201" stroke="#FFF" stroke-width="1" opacity=".1"/><line x1="110" x2="929" y1="193" y2="193" stroke="#FFF" stroke-width="1" opacity=".1"/><line x1="110" x2="929" y1="184" y2="184" stroke="#FFF" stroke-width="1" opacity=".1"/><line x1="110" x2="929" y1="176" y2="176" stroke="#FFF" stroke-width="1" opacity=".1"/><line x1="110" x2="929" y1="167" y2="167" stroke="#FFF" stroke-width="1" opacity=".1"/><line x1="110" x2="929" y1="159" y2="159" stroke="#FFF" stroke-width="1" opacity=".1"/><line x1="110" x2="929" y1="150" y2="150" stroke="#FFF" stroke-width="1" opacity=".1"/><line x1="110" x2="929" y1="142" y2="142" stroke="#FFF" stroke-width="1" opacity=".1"/><line x1="110" x2="929" y1="133" y2="133" stroke="#FFF" stroke-width="1" opacity=".1"/><line x1="110" x2="929" y1="124" y2="124" stroke="#FFF" stroke-width="1" opacity=".1"/><line x1="110" x2="929" y1="116" y2="116" stroke="#FFF" stroke-width="1" opacity=".1"/><line x1="110" x2="929" y1="107" y2="107" stroke="#FFF" stroke-width="1" opacity=".1"/><line x1="110" x2="929" y1="99" y2="99" stroke="#FFF" stroke-width="1" opacity=".1"/><line x1="110" x2="929" y1="90" y2="90" stroke="#FFF" stroke-width="1" opacity=".1"/><line x1="110" x2="929" y1="82" y2="82" stroke="#FFF" stroke-width="1" opacity=".1"/><line x1="110" x2="929" y1="73" y2="73" stroke="#FFF" stroke-width="1" opacity=".1"/><line x1="110" x2="929" y1="65" y2="65" stroke="#FFF" stroke-width="1" opacity=".1"/><line x1="110" x2="929" y1="56" y2="56" stroke="#FFF" stroke-width="1" opacity=".1"/><line x1="110" x2="929" y1="47" y2="47" stroke="#FFF" stroke-width="1" opacity=".1"/><line x1="110" x2="929" y1="39" y2="39" stroke="#FFF" stroke-width="1" opacity=".1"/><text x="30" y="330" fill="#FFF" dy=".76em" font-family="ui-sans-serif, system-ui, -apple-system, BlinkMacSystemFont, &quot;Segoe UI&quot;, Roboto, &quot;Helvetica Neue&quot;, Arial, &quot;Noto Sans&quot;, sans-serif, &quot;Apple Color Emoji&quot;, &quot;Segoe UI Emoji&quot;, &quot;Segoe UI Symbol&quot;, &quot;Noto Color Emoji&quot;" font-size="19.355" opacity="1" text-anchor="middle" transform="rotate(270, 30, 330)">Mean time — lower is better</text><text x="520" y="690" fill="#FFF" dy="-.5ex" font-family="ui-sans-serif, system-ui, -apple-system, BlinkMacSystemFont, &quot;Segoe UI&quot;, Roboto, &quot;Helvetica Neue&quot;, Arial, &quot;Noto Sans&quot;, sans-serif, &quot;Apple Color Emoji&quot;, &quot;Segoe UI Emoji&quot;, &quot;Segoe UI Symbol&quot;, &quot;Noto Color Emoji&quot;" font-size="19.355" opacity="1" text-anchor="middle">Number of modules</text><line x1="929" x2="929" y1="629" y2="30" stroke="#FFF" stroke-width="1" opacity=".2"/><line x1="364" x2="364" y1="629" y2="30" stroke="#FFF" stroke-width="1" opacity=".2"/><line x1="222" x2="222" y1="629" y2="30" stroke="#FFF" stroke-width="1" opacity=".2"/><line x1="110" x2="110" y1="629" y2="30" stroke="#FFF" stroke-width="1" opacity=".2"/><line x1="110" x2="929" y1="629" y2="629" stroke="#FFF" stroke-width="1" opacity=".2"/><line x1="110" x2="929" y1="544" y2="544" stroke="#FFF" stroke-width="1" opacity=".2"/><line x1="110" x2="929" y1="458" y2="458" stroke="#FFF" stroke-width="1" opacity=".2"/><line x1="110" x2="929" y1="373" y2="373" stroke="#FFF" stroke-width="1" opacity=".2"/><line x1="110" x2="929" y1="287" y2="287" stroke="#FFF" stroke-width="1" opacity=".2"/><line x1="110" x2="929" y1="201" y2="201" stroke="#FFF" stroke-width="1" opacity=".2"/><line x1="110" x2="929" y1="116" y2="116" stroke="#FFF" stroke-width="1" opacity=".2"/><polyline fill="none" stroke="#FFF" stroke-width="1" points="109 30 109 629" opacity="1"/><text x="100" y="629" fill="#FFF" dy=".5ex" font-family="ui-sans-serif, system-ui, -apple-system, BlinkMacSystemFont, &quot;Segoe UI&quot;, Roboto, &quot;Helvetica Neue&quot;, Arial, &quot;Noto Sans&quot;, sans-serif, &quot;Apple Color Emoji&quot;, &quot;Segoe UI Emoji&quot;, &quot;Segoe UI Symbol&quot;, &quot;Noto Color Emoji&quot;" font-size="16.129" opacity=".75" text-anchor="end">0ms</text><polyline fill="none" stroke="#FFF" stroke-width="1" points="104 629 109 629" opacity="1"/><text x="100" y="544" fill="#FFF" dy=".5ex" font-family="ui-sans-serif, system-ui, -apple-system, BlinkMacSystemFont, &quot;Segoe UI&quot;, Roboto, &quot;Helvetica Neue&quot;, Arial, &quot;Noto Sans&quot;, sans-serif, &quot;Apple Color Emoji&quot;, &quot;Segoe UI Emoji&quot;, &quot;Segoe UI Symbol&quot;, &quot;Noto Color Emoji&quot;" font-size="16.129" opacity=".75" text-anchor="end">20ms</text><polyline fill="none" stroke="#FFF" stroke-width="1" points="104 544 109 544" opacity="1"/><text x="100" y="458" fill="#FFF" dy=".5ex" font-family="ui-sans-serif, system-ui, -apple-system, BlinkMacSystemFont, &quot;Segoe UI&quot;, Roboto, &quot;Helvetica Neue&quot;, Arial, &quot;Noto Sans&quot;, sans-serif, &quot;Apple Color Emoji&quot;, &quot;Segoe UI Emoji&quot;, &quot;Segoe UI Symbol&quot;, &quot;Noto Color Emoji&quot;" font-size="16.129" opacity=".75" text-anchor="end">40ms</text><polyline fill="none" stroke="#FFF" stroke-width="1" points="104 458 109 458" opacity="1"/><text x="100" y="373" fill="#FFF" dy=".5ex" font-family="ui-sans-serif, system-ui, -apple-system, BlinkMacSystemFont, &quot;Segoe UI&quot;, Roboto, &quot;Helvetica Neue&quot;, Arial, &quot;Noto Sans&quot;, sans-serif, &quot;Apple Color Emoji&quot;, &quot;Segoe UI Emoji&quot;, &quot;Segoe UI Symbol&quot;, &quot;Noto Color Emoji&quot;" font-size="16.129" opacity=".75" text-anchor="end">60ms</text><polyline fill="none" stroke="#FFF" stroke-width="1" points="104 373 109 373" opacity="1"/><text x="100" y="287" fill="#FFF" dy=".5ex" font-family="ui-sans-serif, system-ui, -apple-system, BlinkMacSystemFont, &quot;Segoe UI&quot;, Roboto, &quot;Helvetica Neue&quot;, Arial, &quot;Noto Sans&quot;, sans-serif, &quot;Apple Color Emoji&quot;, &quot;Segoe UI Emoji&quot;, &quot;Segoe UI Symbol&quot;, &quot;Noto Color Emoji&quot;" font-size="16.129" opacity=".75" text-anchor="end">80ms</text><polyline fill="none" stroke="#FFF" stroke-width="1" points="104 287 109 287" opacity="1"/><text x="100" y="201" fill="#FFF" dy=".5ex" font-family="ui-sans-serif, system-ui, -apple-system, BlinkMacSystemFont, &quot;Segoe UI&quot;, Roboto, &quot;Helvetica Neue&quot;, Arial, &quot;Noto Sans&quot;, sans-serif, &quot;Apple Color Emoji&quot;, &quot;Segoe UI Emoji&quot;, &quot;Segoe UI Symbol&quot;, &quot;Noto Color Emoji&quot;" font-size="16.129" opacity=".75" text-anchor="end">100ms</text><polyline fill="none" stroke="#FFF" stroke-width="1" points="104 201 109 201" opacity="1"/><text x="100" y="116" fill="#FFF" dy=".5ex" font-family="ui-sans-serif, system-ui, -apple-system, BlinkMacSystemFont, &quot;Segoe UI&quot;, Roboto, &quot;Helvetica Neue&quot;, Arial, &quot;Noto Sans&quot;, sans-serif, &quot;Apple Color Emoji&quot;, &quot;Segoe UI Emoji&quot;, &quot;Segoe UI Symbol&quot;, &quot;Noto Color Emoji&quot;" font-size="16.129" opacity=".75" text-anchor="end">120ms</text><polyline fill="none" stroke="#FFF" stroke-width="1" points="104 116 109 116" opacity="1"/><polyline fill="none" stroke="#FFF" stroke-width="1" points="110 630 929 630" opacity="1"/><text x="929" y="640" fill="#FFF" dy=".76em" font-family="ui-sans-serif, system-ui, -apple-system, BlinkMacSystemFont, &quot;Segoe UI&quot;, Roboto, &quot;Helvetica Neue&quot;, Arial, &quot;Noto Sans&quot;, sans-serif, &quot;Apple Color Emoji&quot;, &quot;Segoe UI Emoji&quot;, &quot;Segoe UI Symbol&quot;, &quot;Noto Color Emoji&quot;" font-size="16.129" opacity=".75" text-anchor="middle">30,000</text><polyline fill="none" stroke="#FFF" stroke-width="1" points="929 630 929 635" opacity="1"/><text x="364" y="640" fill="#FFF" dy=".76em" font-family="ui-sans-serif, system-ui, -apple-system, BlinkMacSystemFont, &quot;Segoe UI&quot;, Roboto, &quot;Helvetica Neue&quot;, Arial, &quot;Noto Sans&quot;, sans-serif, &quot;Apple Color Emoji&quot;, &quot;Segoe UI Emoji&quot;, &quot;Segoe UI Symbol&quot;, &quot;Noto Color Emoji&quot;" font-size="16.129" opacity=".75" text-anchor="middle">10,000</text><polyline fill="none" stroke="#FFF" stroke-width="1" points="364 630 364 635" opacity="1"/><text x="222" y="640" fill="#FFF" dy=".76em" font-family="ui-sans-serif, system-ui, -apple-system, BlinkMacSystemFont, &quot;Segoe UI&quot;, Roboto, &quot;Helvetica Neue&quot;, Arial, &quot;Noto Sans&quot;, sans-serif, &quot;Apple Color Emoji&quot;, &quot;Segoe UI Emoji&quot;, &quot;Segoe UI Symbol&quot;, &quot;Noto Color Emoji&quot;" font-size="16.129" opacity=".75" text-anchor="middle">5,000</text><polyline fill="none" stroke="#FFF" stroke-width="1" points="222 630 222 635" opacity="1"/><text x="110" y="640" fill="#FFF" dy=".76em" font-family="ui-sans-serif, system-ui, -apple-system, BlinkMacSystemFont, &quot;Segoe UI&quot;, Roboto, &quot;Helvetica Neue&quot;, Arial, &quot;Noto Sans&quot;, sans-serif, &quot;Apple Color Emoji&quot;, &quot;Segoe UI Emoji&quot;, &quot;Segoe UI Symbol&quot;, &quot;Noto Color Emoji&quot;" font-size="16.129" opacity=".75" text-anchor="middle">1,000</text><polyline fill="none" stroke="#FFF" stroke-width="1" points="110 630 110 635" opacity="1"/><rect width="175" height="73" x="115" y="35" fill="#222" stroke="none" opacity="1"/><rect width="175" height="73" x="115" y="35" fill="none" stroke="#FFF" opacity=".2"/><text x="161" y="51" fill="#FFF" dy=".76em" font-family="ui-sans-serif, system-ui, -apple-system, BlinkMacSystemFont, &quot;Segoe UI&quot;, Roboto, &quot;Helvetica Neue&quot;, Arial, &quot;Noto Sans&quot;, sans-serif, &quot;Apple Color Emoji&quot;, &quot;Segoe UI Emoji&quot;, &quot;Segoe UI Symbol&quot;, &quot;Noto Color Emoji&quot;" font-size="16.129" opacity="1" text-anchor="start">Vite SWC CSR</text><text x="161" y="76" fill="#FFF" dy=".76em" font-family="ui-sans-serif, system-ui, -apple-system, BlinkMacSystemFont, &quot;Segoe UI&quot;, Roboto, &quot;Helvetica Neue&quot;, Arial, &quot;Noto Sans&quot;, sans-serif, &quot;Apple Color Emoji&quot;, &quot;Segoe UI Emoji&quot;, &quot;Segoe UI Symbol&quot;, &quot;Noto Color Emoji&quot;" font-size="16.129" opacity="1" text-anchor="start">Turbopack SSR</text><polyline fill="none" stroke="#4CAF50" stroke-width="4" points="131 59 151 59" opacity="1"/><polyline fill="none" stroke="#F44336" stroke-width="4" points="131 84 151 84" opacity="1"/></svg>