<svg xmlns="http://www.w3.org/2000/svg" width="960" height="720" viewBox="0 0 960 720"><polyline fill="none" stroke="#2196F3" stroke-width="4" points="110 617 222 578 364 488 929 59" opacity="1"/><polyline fill="none" stroke="#00BCD4" stroke-width="4" points="110 621 222 600 364 560 929 245" opacity="1"/><polyline fill="none" stroke="#4CAF50" stroke-width="4" points="110 623 222 623 364 623 929 621" opacity="1"/><polyline fill="none" stroke="#F44336" stroke-width="4" points="110 628 222 628 364 628 929 628" opacity="1"/><line x1="110" x2="929" y1="629" y2="629" stroke="#000" stroke-width="1" opacity=".1"/><line x1="110" x2="929" y1="623" y2="623" stroke="#000" stroke-width="1" opacity=".1"/><line x1="110" x2="929" y1="617" y2="617" stroke="#000" stroke-width="1" opacity=".1"/><line x1="110" x2="929" y1="611" y2="611" stroke="#000" stroke-width="1" opacity=".1"/><line x1="110" x2="929" y1="605" y2="605" stroke="#000" stroke-width="1" opacity=".1"/><line x1="110" x2="929" y1="599" y2="599" stroke="#000" stroke-width="1" opacity=".1"/><line x1="110" x2="929" y1="593" y2="593" stroke="#000" stroke-width="1" opacity=".1"/><line x1="110" x2="929" y1="587" y2="587" stroke="#000" stroke-width="1" opacity=".1"/><line x1="110" x2="929" y1="581" y2="581" stroke="#000" stroke-width="1" opacity=".1"/><line x1="110" x2="929" y1="575" y2="575" stroke="#000" stroke-width="1" opacity=".1"/><line x1="110" x2="929" y1="569" y2="569" stroke="#000" stroke-width="1" opacity=".1"/><line x1="110" x2="929" y1="563" y2="563" stroke="#000" stroke-width="1" opacity=".1"/><line x1="110" x2="929" y1="557" y2="557" stroke="#000" stroke-width="1" opacity=".1"/><line x1="110" x2="929" y1="551" y2="551" stroke="#000" stroke-width="1" opacity=".1"/><line x1="110" x2="929" y1="545" y2="545" stroke="#000" stroke-width="1" opacity=".1"/><line x1="110" x2="929" y1="539" y2="539" stroke="#000" stroke-width="1" opacity=".1"/><line x1="110" x2="929" y1="533" y2="533" stroke="#000" stroke-width="1" opacity=".1"/><line x1="110" x2="929" y1="527" y2="527" stroke="#000" stroke-width="1" opacity=".1"/><line x1="110" x2="929" y1="521" y2="521" stroke="#000" stroke-width="1" opacity=".1"/><line x1="110" x2="929" y1="515" y2="515" stroke="#000" stroke-width="1" opacity=".1"/><line x1="110" x2="929" y1="509" y2="509" stroke="#000" stroke-width="1" opacity=".1"/><line x1="110" x2="929" y1="503" y2="503" stroke="#000" stroke-width="1" opacity=".1"/><line x1="110" x2="929" y1="497" y2="497" stroke="#000" stroke-width="1" opacity=".1"/><line x1="110" x2="929" y1="491" y2="491" stroke="#000" stroke-width="1" opacity=".1"/><line x1="110" x2="929" y1="485" y2="485" stroke="#000" stroke-width="1" opacity=".1"/><line x1="110" x2="929" y1="479" y2="479" stroke="#000" stroke-width="1" opacity=".1"/><line x1="110" x2="929" y1="473" y2="473" stroke="#000" stroke-width="1" opacity=".1"/><line x1="110" x2="929" y1="467" y2="467" stroke="#000" stroke-width="1" opacity=".1"/><line x1="110" x2="929" y1="461" y2="461" stroke="#000" stroke-width="1" opacity=".1"/><line x1="110" x2="929" y1="455" y2="455" stroke="#000" stroke-width="1" opacity=".1"/><line x1="110" x2="929" y1="449" y2="449" stroke="#000" stroke-width="1" opacity=".1"/><line x1="110" x2="929" y1="443" y2="443" stroke="#000" stroke-width="1" opacity=".1"/><line x1="110" x2="929" y1="437" y2="437" stroke="#000" stroke-width="1" opacity=".1"/><line x1="110" x2="929" y1="431" y2="431" stroke="#000" stroke-width="1" opacity=".1"/><line x1="110" x2="929" y1="425" y2="425" stroke="#000" stroke-width="1" opacity=".1"/><line x1="110" x2="929" y1="419" y2="419" stroke="#000" stroke-width="1" opacity=".1"/><line x1="110" x2="929" y1="413" y2="413" stroke="#000" stroke-width="1" opacity=".1"/><line x1="110" x2="929" y1="407" y2="407" stroke="#000" stroke-width="1" opacity=".1"/><line x1="110" x2="929" y1="401" y2="401" stroke="#000" stroke-width="1" opacity=".1"/><line x1="110" x2="929" y1="395" y2="395" stroke="#000" stroke-width="1" opacity=".1"/><line x1="110" x2="929" y1="389" y2="389" stroke="#000" stroke-width="1" opacity=".1"/><line x1="110" x2="929" y1="383" y2="383" stroke="#000" stroke-width="1" opacity=".1"/><line x1="110" x2="929" y1="377" y2="377" stroke="#000" stroke-width="1" opacity=".1"/><line x1="110" x2="929" y1="371" y2="371" stroke="#000" stroke-width="1" opacity=".1"/><line x1="110" x2="929" y1="365" y2="365" stroke="#000" stroke-width="1" opacity=".1"/><line x1="110" x2="929" y1="359" y2="359" stroke="#000" stroke-width="1" opacity=".1"/><line x1="110" x2="929" y1="353" y2="353" stroke="#000" stroke-width="1" opacity=".1"/><line x1="110" x2="929" y1="347" y2="347" stroke="#000" stroke-width="1" opacity=".1"/><line x1="110" x2="929" y1="341" y2="341" stroke="#000" stroke-width="1" opacity=".1"/><line x1="110" x2="929" y1="335" y2="335" stroke="#000" stroke-width="1" opacity=".1"/><line x1="110" x2="929" y1="329" y2="329" stroke="#000" stroke-width="1" opacity=".1"/><line x1="110" x2="929" y1="323" y2="323" stroke="#000" stroke-width="1" opacity=".1"/><line x1="110" x2="929" y1="317" y2="317" stroke="#000" stroke-width="1" opacity=".1"/><line x1="110" x2="929" y1="311" y2="311" stroke="#000" stroke-width="1" opacity=".1"/><line x1="110" x2="929" y1="305" y2="305" stroke="#000" stroke-width="1" opacity=".1"/><line x1="110" x2="929" y1="299" y2="299" stroke="#000" stroke-width="1" opacity=".1"/><line x1="110" x2="929" y1="293" y2="293" stroke="#000" stroke-width="1" opacity=".1"/><line x1="110" x2="929" y1="287" y2="287" stroke="#000" stroke-width="1" opacity=".1"/><line x1="110" x2="929" y1="281" y2="281" stroke="#000" stroke-width="1" opacity=".1"/><line x1="110" x2="929" y1="275" y2="275" stroke="#000" stroke-width="1" opacity=".1"/><line x1="110" x2="929" y1="269" y2="269" stroke="#000" stroke-width="1" opacity=".1"/><line x1="110" x2="929" y1="263" y2="263" stroke="#000" stroke-width="1" opacity=".1"/><line x1="110" x2="929" y1="257" y2="257" stroke="#000" stroke-width="1" opacity=".1"/><line x1="110" x2="929" y1="251" y2="251" stroke="#000" stroke-width="1" opacity=".1"/><line x1="110" x2="929" y1="245" y2="245" stroke="#000" stroke-width="1" opacity=".1"/><line x1="110" x2="929" y1="239" y2="239" stroke="#000" stroke-width="1" opacity=".1"/><line x1="110" x2="929" y1="233" y2="233" stroke="#000" stroke-width="1" opacity=".1"/><line x1="110" x2="929" y1="227" y2="227" stroke="#000" stroke-width="1" opacity=".1"/><line x1="110" x2="929" y1="221" y2="221" stroke="#000" stroke-width="1" opacity=".1"/><line x1="110" x2="929" y1="215" y2="215" stroke="#000" stroke-width="1" opacity=".1"/><line x1="110" x2="929" y1="209" y2="209" stroke="#000" stroke-width="1" opacity=".1"/><line x1="110" x2="929" y1="203" y2="203" stroke="#000" stroke-width="1" opacity=".1"/><line x1="110" x2="929" y1="197" y2="197" stroke="#000" stroke-width="1" opacity=".1"/><line x1="110" x2="929" y1="191" y2="191" stroke="#000" stroke-width="1" opacity=".1"/><line x1="110" x2="929" y1="185" y2="185" stroke="#000" stroke-width="1" opacity=".1"/><line x1="110" x2="929" y1="179" y2="179" stroke="#000" stroke-width="1" opacity=".1"/><line x1="110" x2="929" y1="173" y2="173" stroke="#000" stroke-width="1" opacity=".1"/><line x1="110" x2="929" y1="167" y2="167" stroke="#000" stroke-width="1" opacity=".1"/><line x1="110" x2="929" y1="161" y2="161" stroke="#000" stroke-width="1" opacity=".1"/><line x1="110" x2="929" y1="155" y2="155" stroke="#000" stroke-width="1" opacity=".1"/><line x1="110" x2="929" y1="149" y2="149" stroke="#000" stroke-width="1" opacity=".1"/><line x1="110" x2="929" y1="143" y2="143" stroke="#000" stroke-width="1" opacity=".1"/><line x1="110" x2="929" y1="137" y2="137" stroke="#000" stroke-width="1" opacity=".1"/><line x1="110" x2="929" y1="131" y2="131" stroke="#000" stroke-width="1" opacity=".1"/><line x1="110" x2="929" y1="125" y2="125" stroke="#000" stroke-width="1" opacity=".1"/><line x1="110" x2="929" y1="119" y2="119" stroke="#000" stroke-width="1" opacity=".1"/><line x1="110" x2="929" y1="113" y2="113" stroke="#000" stroke-width="1" opacity=".1"/><line x1="110" x2="929" y1="107" y2="107" stroke="#000" stroke-width="1" opacity=".1"/><line x1="110" x2="929" y1="101" y2="101" stroke="#000" stroke-width="1" opacity=".1"/><line x1="110" x2="929" y1="95" y2="95" stroke="#000" stroke-width="1" opacity=".1"/><line x1="110" x2="929" y1="89" y2="89" stroke="#000" stroke-width="1" opacity=".1"/><line x1="110" x2="929" y1="83" y2="83" stroke="#000" stroke-width="1" opacity=".1"/><line x1="110" x2="929" y1="77" y2="77" stroke="#000" stroke-width="1" opacity=".1"/><line x1="110" x2="929" y1="71" y2="71" stroke="#000" stroke-width="1" opacity=".1"/><line x1="110" x2="929" y1="65" y2="65" stroke="#000" stroke-width="1" opacity=".1"/><line x1="110" x2="929" y1="59" y2="59" stroke="#000" stroke-width="1" opacity=".1"/><line x1="110" x2="929" y1="53" y2="53" stroke="#000" stroke-width="1" opacity=".1"/><line x1="110" x2="929" y1="47" y2="47" stroke="#000" stroke-width="1" opacity=".1"/><line x1="110" x2="929" y1="41" y2="41" stroke="#000" stroke-width="1" opacity=".1"/><line x1="110" x2="929" y1="35" y2="35" stroke="#000" stroke-width="1" opacity=".1"/><text x="30" y="330" fill="#000" dy=".76em" font-family="ui-sans-serif, system-ui, -apple-system, BlinkMacSystemFont, &quot;Segoe UI&quot;, Roboto, &quot;Helvetica Neue&quot;, Arial, &quot;Noto Sans&quot;, sans-serif, &quot;Apple Color Emoji&quot;, &quot;Segoe UI Emoji&quot;, &quot;Segoe UI Symbol&quot;, &quot;Noto Color Emoji&quot;" font-size="19.355" opacity="1" text-anchor="middle" transform="rotate(270, 30, 330)">Mean time — lower is better</text><text x="520" y="690" fill="#000" dy="-.5ex" font-family="ui-sans-serif, system-ui, -apple-system, BlinkMacSystemFont, &quot;Segoe UI&quot;, Roboto, &quot;Helvetica Neue&quot;, Arial, &quot;Noto Sans&quot;, sans-serif, &quot;Apple Color Emoji&quot;, &quot;Segoe UI Emoji&quot;, &quot;Segoe UI Symbol&quot;, &quot;Noto Color Emoji&quot;" font-size="19.355" opacity="1" text-anchor="middle">Number of modules</text><line x1="222" x2="222" y1="629" y2="30" stroke="#000" stroke-width="1" opacity=".2"/><line x1="929" x2="929" y1="629" y2="30" stroke="#000" stroke-width="1" opacity=".2"/><line x1="364" x2="364" y1="629" y2="30" stroke="#000" stroke-width="1" opacity=".2"/><line x1="110" x2="110" y1="629" y2="30" stroke="#000" stroke-width="1" opacity=".2"/><line x1="110" x2="929" y1="629" y2="629" stroke="#000" stroke-width="1" opacity=".2"/><line x1="110" x2="929" y1="569" y2="569" stroke="#000" stroke-width="1" opacity=".2"/><line x1="110" x2="929" y1="509" y2="509" stroke="#000" stroke-width="1" opacity=".2"/><line x1="110" x2="929" y1="449" y2="449" stroke="#000" stroke-width="1" opacity=".2"/><line x1="110" x2="929" y1="389" y2="389" stroke="#000" stroke-width="1" opacity=".2"/><line x1="110" x2="929" y1="329" y2="329" stroke="#000" stroke-width="1" opacity=".2"/><line x1="110" x2="929" y1="269" y2="269" stroke="#000" stroke-width="1" opacity=".2"/><line x1="110" x2="929" y1="209" y2="209" stroke="#000" stroke-width="1" opacity=".2"/><line x1="110" x2="929" y1="149" y2="149" stroke="#000" stroke-width="1" opacity=".2"/><line x1="110" x2="929" y1="89" y2="89" stroke="#000" stroke-width="1" opacity=".2"/><polyline fill="none" stroke="#000" stroke-width="1" points="109 30 109 629" opacity="1"/><text x="100" y="629" fill="#000" dy=".5ex" font-family="ui-sans-serif, system-ui, -apple-system, BlinkMacSystemFont, &quot;Segoe UI&quot;, Roboto, &quot;Helvetica Neue&quot;, Arial, &quot;Noto Sans&quot;, sans-serif, &quot;Apple Color Emoji&quot;, &quot;Segoe UI Emoji&quot;, &quot;Segoe UI Symbol&quot;, &quot;Noto Color Emoji&quot;" font-size="16.129" opacity=".75" text-anchor="end">0s</text><polyline fill="none" stroke="#000" stroke-width="1" points="104 629 109 629" opacity="1"/><text x="100" y="569" fill="#000" dy=".5ex" font-family="ui-sans-serif, system-ui, -apple-system, BlinkMacSystemFont, &quot;Segoe UI&quot;, Roboto, &quot;Helvetica Neue&quot;, Arial, &quot;Noto Sans&quot;, sans-serif, &quot;Apple Color Emoji&quot;, &quot;Segoe UI Emoji&quot;, &quot;Segoe UI Symbol&quot;, &quot;Noto Color Emoji&quot;" font-size="16.129" opacity=".75" text-anchor="end">1s</text><polyline fill="none" stroke="#000" stroke-width="1" points="104 569 109 569" opacity="1"/><text x="100" y="509" fill="#000" dy=".5ex" font-family="ui-sans-serif, system-ui, -apple-system, BlinkMacSystemFont, &quot;Segoe UI&quot;, Roboto, &quot;Helvetica Neue&quot;, Arial, &quot;Noto Sans&quot;, sans-serif, &quot;Apple Color Emoji&quot;, &quot;Segoe UI Emoji&quot;, &quot;Segoe UI Symbol&quot;, &quot;Noto Color Emoji&quot;" font-size="16.129" opacity=".75" text-anchor="end">2s</text><polyline fill="none" stroke="#000" stroke-width="1" points="104 509 109 509" opacity="1"/><text x="100" y="449" fill="#000" dy=".5ex" font-family="ui-sans-serif, system-ui, -apple-system, BlinkMacSystemFont, &quot;Segoe UI&quot;, Roboto, &quot;Helvetica Neue&quot;, Arial, &quot;Noto Sans&quot;, sans-serif, &quot;Apple Color Emoji&quot;, &quot;Segoe UI Emoji&quot;, &quot;Segoe UI Symbol&quot;, &quot;Noto Color Emoji&quot;" font-size="16.129" opacity=".75" text-anchor="end">3s</text><polyline fill="none" stroke="#000" stroke-width="1" points="104 449 109 449" opacity="1"/><text x="100" y="389" fill="#000" dy=".5ex" font-family="ui-sans-serif, system-ui, -apple-system, BlinkMacSystemFont, &quot;Segoe UI&quot;, Roboto, &quot;Helvetica Neue&quot;, Arial, &quot;Noto Sans&quot;, sans-serif, &quot;Apple Color Emoji&quot;, &quot;Segoe UI Emoji&quot;, &quot;Segoe UI Symbol&quot;, &quot;Noto Color Emoji&quot;" font-size="16.129" opacity=".75" text-anchor="end">4s</text><polyline fill="none" stroke="#000" stroke-width="1" points="104 389 109 389" opacity="1"/><text x="100" y="329" fill="#000" dy=".5ex" font-family="ui-sans-serif, system-ui, -apple-system, BlinkMacSystemFont, &quot;Segoe UI&quot;, Roboto, &quot;Helvetica Neue&quot;, Arial, &quot;Noto Sans&quot;, sans-serif, &quot;Apple Color Emoji&quot;, &quot;Segoe UI Emoji&quot;, &quot;Segoe UI Symbol&quot;, &quot;Noto Color Emoji&quot;" font-size="16.129" opacity=".75" text-anchor="end">5s</text><polyline fill="none" stroke="#000" stroke-width="1" points="104 329 109 329" opacity="1"/><text x="100" y="269" fill="#000" dy=".5ex" font-family="ui-sans-serif, system-ui, -apple-system, BlinkMacSystemFont, &quot;Segoe UI&quot;, Roboto, &quot;Helvetica Neue&quot;, Arial, &quot;Noto Sans&quot;, sans-serif, &quot;Apple Color Emoji&quot;, &quot;Segoe UI Emoji&quot;, &quot;Segoe UI Symbol&quot;, &quot;Noto Color Emoji&quot;" font-size="16.129" opacity=".75" text-anchor="end">6s</text><polyline fill="none" stroke="#000" stroke-width="1" points="104 269 109 269" opacity="1"/><text x="100" y="209" fill="#000" dy=".5ex" font-family="ui-sans-serif, system-ui, -apple-system, BlinkMacSystemFont, &quot;Segoe UI&quot;, Roboto, &quot;Helvetica Neue&quot;, Arial, &quot;Noto Sans&quot;, sans-serif, &quot;Apple Color Emoji&quot;, &quot;Segoe UI Emoji&quot;, &quot;Segoe UI Symbol&quot;, &quot;Noto Color Emoji&quot;" font-size="16.129" opacity=".75" text-anchor="end">7s</text><polyline fill="none" stroke="#000" stroke-width="1" points="104 209 109 209" opacity="1"/><text x="100" y="149" fill="#000" dy=".5ex" font-family="ui-sans-serif, system-ui, -apple-system, BlinkMacSystemFont, &quot;Segoe UI&quot;, Roboto, &quot;Helvetica Neue&quot;, Arial, &quot;Noto Sans&quot;, sans-serif, &quot;Apple Color Emoji&quot;, &quot;Segoe UI Emoji&quot;, &quot;Segoe UI Symbol&quot;, &quot;Noto Color Emoji&quot;" font-size="16.129" opacity=".75" text-anchor="end">8s</text><polyline fill="none" stroke="#000" stroke-width="1" points="104 149 109 149" opacity="1"/><text x="100" y="89" fill="#000" dy=".5ex" font-family="ui-sans-serif, system-ui, -apple-system, BlinkMacSystemFont, &quot;Segoe UI&quot;, Roboto, &quot;Helvetica Neue&quot;, Arial, &quot;Noto Sans&quot;, sans-serif, &quot;Apple Color Emoji&quot;, &quot;Segoe UI Emoji&quot;, &quot;Segoe UI Symbol&quot;, &quot;Noto Color Emoji&quot;" font-size="16.129" opacity=".75" text-anchor="end">9s</text><polyline fill="none" stroke="#000" stroke-width="1" points="104 89 109 89" opacity="1"/><polyline fill="none" stroke="#000" stroke-width="1" points="110 630 929 630" opacity="1"/><text x="222" y="640" fill="#000" dy=".76em" font-family="ui-sans-serif, system-ui, -apple-system, BlinkMacSystemFont, &quot;Segoe UI&quot;, Roboto, &quot;Helvetica Neue&quot;, Arial, &quot;Noto Sans&quot;, sans-serif, &quot;Apple Color Emoji&quot;, &quot;Segoe UI Emoji&quot;, &quot;Segoe UI Symbol&quot;, &quot;Noto Color Emoji&quot;" font-size="16.129" opacity=".75" text-anchor="middle">5,000</text><polyline fill="none" stroke="#000" stroke-width="1" points="222 630 222 635" opacity="1"/><text x="929" y="640" fill="#000" dy=".76em" font-family="ui-sans-serif, system-ui, -apple-system, BlinkMacSystemFont, &quot;Segoe UI&quot;, Roboto, &quot;Helvetica Neue&quot;, Arial, &quot;Noto Sans&quot;, sans-serif, &quot;Apple Color Emoji&quot;, &quot;Segoe UI Emoji&quot;, &quot;Segoe UI Symbol&quot;, &quot;Noto Color Emoji&quot;" font-size="16.129" opacity=".75" text-anchor="middle">30,000</text><polyline fill="none" stroke="#000" stroke-width="1" points="929 630 929 635" opacity="1"/><text x="364" y="640" fill="#000" dy=".76em" font-family="ui-sans-serif, system-ui, -apple-system, BlinkMacSystemFont, &quot;Segoe UI&quot;, Roboto, &quot;Helvetica Neue&quot;, Arial, &quot;Noto Sans&quot;, sans-serif, &quot;Apple Color Emoji&quot;, &quot;Segoe UI Emoji&quot;, &quot;Segoe UI Symbol&quot;, &quot;Noto Color Emoji&quot;" font-size="16.129" opacity=".75" text-anchor="middle">10,000</text><polyline fill="none" stroke="#000" stroke-width="1" points="364 630 364 635" opacity="1"/><text x="110" y="640" fill="#000" dy=".76em" font-family="ui-sans-serif, system-ui, -apple-system, BlinkMacSystemFont, &quot;Segoe UI&quot;, Roboto, &quot;Helvetica Neue&quot;, Arial, &quot;Noto Sans&quot;, sans-serif, &quot;Apple Color Emoji&quot;, &quot;Segoe UI Emoji&quot;, &quot;Segoe UI Symbol&quot;, &quot;Noto Color Emoji&quot;" font-size="16.129" opacity=".75" text-anchor="middle">1,000</text><polyline fill="none" stroke="#000" stroke-width="1" points="110 630 110 635" opacity="1"/><rect width="175" height="123" x="115" y="35" fill="#FFF" stroke="none" opacity="1"/><rect width="175" height="123" x="115" y="35" fill="none" stroke="#000" opacity=".2"/><text x="161" y="51" fill="#000" dy=".76em" font-family="ui-sans-serif, system-ui, -apple-system, BlinkMacSystemFont, &quot;Segoe UI&quot;, Roboto, &quot;Helvetica Neue&quot;, Arial, &quot;Noto Sans&quot;, sans-serif, &quot;Apple Color Emoji&quot;, &quot;Segoe UI Emoji&quot;, &quot;Segoe UI Symbol&quot;, &quot;Noto Color Emoji&quot;" font-size="16.129" opacity="1" text-anchor="start">Next.js 11 SSR</text><text x="161" y="76" fill="#000" dy=".76em" font-family="ui-sans-serif, system-ui, -apple-system, BlinkMacSystemFont, &quot;Segoe UI&quot;, Roboto, &quot;Helvetica Neue&quot;, Arial, &quot;Noto Sans&quot;, sans-serif, &quot;Apple Color Emoji&quot;, &quot;Segoe UI Emoji&quot;, &quot;Segoe UI Symbol&quot;, &quot;Noto Color Emoji&quot;" font-size="16.129" opacity="1" text-anchor="start">Next.js 12 SSR</text><text x="161" y="101" fill="#000" dy=".76em" font-family="ui-sans-serif, system-ui, -apple-system, BlinkMacSystemFont, &quot;Segoe UI&quot;, Roboto, &quot;Helvetica Neue&quot;, Arial, &quot;Noto Sans&quot;, sans-serif, &quot;Apple Color Emoji&quot;, &quot;Segoe UI Emoji&quot;, &quot;Segoe UI Symbol&quot;, &quot;Noto Color Emoji&quot;" font-size="16.129" opacity="1" text-anchor="start">Vite SWC CSR</text><text x="161" y="126" fill="#000" dy=".76em" font-family="ui-sans-serif, system-ui, -apple-system, BlinkMacSystemFont, &quot;Segoe UI&quot;, Roboto, &quot;Helvetica Neue&quot;, Arial, &quot;Noto Sans&quot;, sans-serif, &quot;Apple Color Emoji&quot;, &quot;Segoe UI Emoji&quot;, &quot;Segoe UI Symbol&quot;, &quot;Noto Color Emoji&quot;" font-size="16.129" opacity="1" text-anchor="start">Turbopack SSR</text><polyline fill="none" stroke="#2196F3" stroke-width="4" points="131 59 151 59" opacity="1"/><polyline fill="none" stroke="#00BCD4" stroke-width="4" points="131 84 151 84" opacity="1"/><polyline fill="none" stroke="#4CAF50" stroke-width="4" points="131 109 151 109" opacity="1"/><polyline fill="none" stroke="#F44336" stroke-width="4" points="131 134 151 134" opacity="1"/></svg>