<svg xmlns="http://www.w3.org/2000/svg" xmlns:xlink="http://www.w3.org/1999/xlink" id="Layer_1" width="614" height="614" viewBox="0 0 614 614"><path d="M433.286 169H179.714C173.797 169 169 173.797 169 179.714V433.286C169 439.203 173.797 444 179.714 444H433.286C439.203 444 444 439.203 444 433.286V179.714C444 173.797 439.203 169 433.286 169Z" opacity=".1" style="fill:none;stroke:rgba(255,255,255,.1)"><animate attributeName="opacity" begin="0.2s" dur="3s" repeatCount="indefinite" values="1;0.1;0.1;1"/></path><path fill="url(#paint0_radial_10_97)" fill-opacity=".1" d="M433.286 169H179.714C173.797 169 169 173.797 169 179.714V433.286C169 439.203 173.797 444 179.714 444H433.286C439.203 444 444 439.203 444 433.286V179.714C444 173.797 439.203 169 433.286 169Z" opacity=".1"><animate attributeName="opacity" dur="3s" repeatCount="indefinite" values="1;0.5;0.5;1"/></path><path d="M557.587 44H55.413C49.1098 44 44 49.1098 44 55.413V557.587C44 563.89 49.1098 569 55.413 569H557.587C563.89 569 569 563.89 569 557.587V55.413C569 49.1098 563.89 44 557.587 44Z" style="fill:none;stroke:rgba(255,255,255,.1)"><animate attributeName="opacity" begin="0.4s" dur="3s" repeatCount="indefinite" values="1;0.1;0.1;1"/></path><defs><radialGradient id="paint0_radial_10_97" cx="0" cy="0" r="1" gradientTransform="translate(310.518 306.5) rotate(90.186) scale(137.501 133.483)" gradientUnits="userSpaceOnUse"><stop stop-color="#fff"/><stop offset="1" stop-color="#fff" stop-opacity="0"/></radialGradient></defs></svg>