<svg xmlns="http://www.w3.org/2000/svg" width="64" height="64" fill="none" viewBox="0 0 64 64"><rect width="48" height="48" x="8" y="8" fill="#fff" rx="24"/><path stroke="url(#paint0_linear_1032_5056)" stroke-linecap="round" stroke-linejoin="round" stroke-width="1.5" d="M25.3335 28.6666V25.3333M25.3335 25.3333H28.6668M25.3335 25.3333L29.5002 29.5M38.6668 28.6666V25.3333M38.6668 25.3333H35.3335M38.6668 25.3333L34.5002 29.5M25.3335 35.3333V38.6666M25.3335 38.6666H28.6668M25.3335 38.6666L29.5002 34.5M38.6668 38.6666L34.5002 34.5M38.6668 38.6666V35.3333M38.6668 38.6666H35.3335"/><rect width="47" height="47" x="8.5" y="8.5" stroke="url(#paint1_radial_1032_5056)" stroke-opacity=".15" rx="23.5"/><rect width="47" height="47" x="8.5" y="8.5" stroke="url(#paint2_linear_1032_5056)" stroke-opacity=".5" rx="23.5"/><rect width="63" height="63" x=".5" y=".5" stroke="#000" stroke-opacity=".1" rx="31.5"/><defs><linearGradient id="paint0_linear_1032_5056" x1="38.606" x2="25.559" y1="25.247" y2="40.39" gradientUnits="userSpaceOnUse"><stop stop-color="#FF1E56"/><stop offset="1" stop-color="#D67FDC"/></linearGradient><radialGradient id="paint1_radial_1032_5056" cx="0" cy="0" r="1" gradientTransform="translate(32 8) rotate(90) scale(61.7143)" gradientUnits="userSpaceOnUse"><stop/><stop offset="1"/></radialGradient><linearGradient id="paint2_linear_1032_5056" x1="8" x2="18.5" y1="8" y2="27.5" gradientUnits="userSpaceOnUse"><stop/><stop offset="1" stop-opacity="0"/></linearGradient></defs></svg>