<svg xmlns="http://www.w3.org/2000/svg" width="64" height="64" fill="none" viewBox="0 0 64 64"><rect width="48" height="48" x="8" y="8" fill="#fff" rx="24"/><path stroke="url(#paint0_linear_1032_5033)" stroke-linecap="round" stroke-linejoin="round" stroke-width="1.5" d="M29.5 24.5V26.1667M34.5 24.5V26.1667M29.5 37.8333V39.5M34.5 37.8333V39.5M26.1667 29.5H24.5M26.1667 34.5H24.5M39.5 29.5H37.8333M39.5 34.5H37.8333M27.8333 37.8333H36.1667C36.6087 37.8333 37.0326 37.6577 37.3452 37.3452C37.6577 37.0326 37.8333 36.6087 37.8333 36.1667V27.8333C37.8333 27.3913 37.6577 26.9674 37.3452 26.6548C37.0326 26.3423 36.6087 26.1667 36.1667 26.1667H27.8333C27.3913 26.1667 26.9674 26.3423 26.6548 26.6548C26.3423 26.9674 26.1667 27.3913 26.1667 27.8333V36.1667C26.1667 36.6087 26.3423 37.0326 26.6548 37.3452C26.9674 37.6577 27.3913 37.8333 27.8333 37.8333ZM29.5 29.5H34.5V34.5H29.5V29.5Z"/><rect width="47" height="47" x="8.5" y="8.5" stroke="url(#paint1_radial_1032_5033)" stroke-opacity=".15" rx="23.5"/><rect width="47" height="47" x="8.5" y="8.5" stroke="url(#paint2_linear_1032_5033)" stroke-opacity=".5" rx="23.5"/><rect width="63" height="63" x=".5" y=".5" stroke="#000" stroke-opacity=".1" rx="31.5"/><defs><linearGradient id="paint0_linear_1032_5033" x1="39.431" x2="24.754" y1="24.403" y2="41.439" gradientUnits="userSpaceOnUse"><stop stop-color="#FF1E56"/><stop offset="1" stop-color="#D67FDC"/></linearGradient><radialGradient id="paint1_radial_1032_5033" cx="0" cy="0" r="1" gradientTransform="translate(32 8) rotate(90) scale(61.7143)" gradientUnits="userSpaceOnUse"><stop/><stop offset="1"/></radialGradient><linearGradient id="paint2_linear_1032_5033" x1="8" x2="18.5" y1="8" y2="27.5" gradientUnits="userSpaceOnUse"><stop/><stop offset="1" stop-opacity="0"/></linearGradient></defs></svg>