<svg xmlns="http://www.w3.org/2000/svg" width="64" height="64" fill="none" viewBox="0 0 64 64"><rect width="48" height="48" x="8" y="8" fill="url(#paint0_radial_934_7415)" fill-opacity=".1" rx="24"/><rect width="48" height="48" x="8" y="8" fill="#fff" fill-opacity=".8" rx="24"/><mask id="mask0_934_7415" style="mask-type:alpha" width="24" height="24" x="20" y="20" maskUnits="userSpaceOnUse"><circle cx="32" cy="32" r="12" fill="#000"/></mask><g mask="url(#mask0_934_7415)"><circle cx="32" cy="32" r="12" fill="#000"/><path fill="url(#paint1_linear_934_7415)" d="M39.9346 41.0027L29.2191 27.2H27.2002V36.7959H28.8153V29.2511L38.6667 41.9793C39.1112 41.6818 39.5347 41.3553 39.9346 41.0027Z"/><rect width="1.6" height="9.6" x="35.334" y="27.2" fill="url(#paint2_linear_934_7415)"/></g><rect width="47" height="47" x="8.5" y="8.5" stroke="#000" stroke-opacity=".05" rx="23.5"/><rect width="47" height="47" x="8.5" y="8.5" stroke="url(#paint3_radial_934_7415)" stroke-opacity=".15" rx="23.5"/><rect width="47" height="47" x="8.5" y="8.5" stroke="url(#paint4_linear_934_7415)" stroke-opacity=".5" rx="23.5"/><rect width="63" height="63" x=".5" y=".5" stroke="#000" stroke-opacity=".1" rx="31.5"/><defs><radialGradient id="paint0_radial_934_7415" cx="0" cy="0" r="1" gradientTransform="translate(31.8345 8) rotate(89.6049) scale(24.0006 24.0098)" gradientUnits="userSpaceOnUse"><stop stop-color="#fff"/><stop offset="1" stop-color="#fff" stop-opacity="0"/></radialGradient><linearGradient id="paint1_linear_934_7415" x1="34.533" x2="39.267" y1="35.533" y2="41.4" gradientUnits="userSpaceOnUse"><stop stop-color="#fff"/><stop offset="1" stop-color="#fff" stop-opacity="0"/></linearGradient><linearGradient id="paint2_linear_934_7415" x1="36.133" x2="36.107" y1="27.2" y2="34.25" gradientUnits="userSpaceOnUse"><stop stop-color="#fff"/><stop offset="1" stop-color="#fff" stop-opacity="0"/></linearGradient><radialGradient id="paint3_radial_934_7415" cx="0" cy="0" r="1" gradientTransform="translate(32 8) rotate(90) scale(61.7143)" gradientUnits="userSpaceOnUse"><stop/><stop offset="1"/></radialGradient><linearGradient id="paint4_linear_934_7415" x1="8" x2="18.5" y1="8" y2="27.5" gradientUnits="userSpaceOnUse"><stop/><stop offset="1" stop-opacity="0"/></linearGradient></defs></svg>