<svg xmlns="http://www.w3.org/2000/svg" width="64" height="64" fill="none" viewBox="0 0 64 64"><rect width="48" height="48" x="8" y="8" fill="#fff" rx="24"/><path stroke="url(#paint0_linear_1032_5012)" stroke-linecap="round" stroke-linejoin="round" stroke-width="1.5" d="M25.3335 25.3334V29.5H25.8185M38.6152 31.1667C38.4309 29.7024 37.766 28.3407 36.7246 27.2948C35.6833 26.249 34.3244 25.5782 32.861 25.3876C31.3975 25.197 29.9121 25.4974 28.6377 26.2416C27.3632 26.9858 26.3717 28.1318 25.8185 29.5M25.8185 29.5H29.5002M38.6668 38.6667V34.5H38.1827M38.1827 34.5C37.6287 35.8674 36.6369 37.0126 35.3625 37.7561C34.0882 38.4996 32.6033 38.7996 31.1402 38.6091C29.6772 38.4185 28.3187 37.7482 27.2773 36.7031C26.2359 35.658 25.5705 34.2971 25.3852 32.8334M38.1827 34.5H34.5002"/><rect width="47" height="47" x="8.5" y="8.5" stroke="url(#paint1_radial_1032_5012)" stroke-opacity=".15" rx="23.5"/><rect width="47" height="47" x="8.5" y="8.5" stroke="url(#paint2_linear_1032_5012)" stroke-opacity=".5" rx="23.5"/><rect width="63" height="63" x=".5" y=".5" stroke="#000" stroke-opacity=".1" rx="31.5"/><defs><linearGradient id="paint0_linear_1032_5012" x1="38.606" x2="25.557" y1="25.245" y2="40.389" gradientUnits="userSpaceOnUse"><stop stop-color="#FF1E56"/><stop offset="1" stop-color="#D67FDC"/></linearGradient><radialGradient id="paint1_radial_1032_5012" cx="0" cy="0" r="1" gradientTransform="translate(32 8) rotate(90) scale(61.7143)" gradientUnits="userSpaceOnUse"><stop/><stop offset="1"/></radialGradient><linearGradient id="paint2_linear_1032_5012" x1="8" x2="18.5" y1="8" y2="27.5" gradientUnits="userSpaceOnUse"><stop/><stop offset="1" stop-opacity="0"/></linearGradient></defs></svg>