<svg xmlns="http://www.w3.org/2000/svg" width="64" height="64" fill="none" viewBox="0 0 64 64"><rect width="48" height="48" x="8" y="8" fill="#000" rx="24"/><path fill="url(#paint0_linear_926_5882)" fill-rule="evenodd" d="M24.4165 25.3332C24.4165 24.8269 24.8269 24.4165 25.3332 24.4165H38.6665C39.1728 24.4165 39.5832 24.8269 39.5832 25.3332V28.6665C39.5832 29.1728 39.1728 29.5832 38.6665 29.5832H25.3332C24.8269 29.5832 24.4165 29.1728 24.4165 28.6665V25.3332ZM25.3332 22.9165C23.9985 22.9165 22.9165 23.9985 22.9165 25.3332V28.6665C22.9165 30.0012 23.9985 31.0832 25.3332 31.0832H38.6665C40.0012 31.0832 41.0832 30.0012 41.0832 28.6665V25.3332C41.0832 23.9985 40.0012 22.9165 38.6665 22.9165H25.3332ZM24.4165 35.3332C24.4165 34.8269 24.8269 34.4165 25.3332 34.4165H38.6665C39.1728 34.4165 39.5832 34.8269 39.5832 35.3332V38.6665C39.5832 39.1728 39.1728 39.5832 38.6665 39.5832H25.3332C24.8269 39.5832 24.4165 39.1728 24.4165 38.6665V35.3332ZM25.3332 32.9165C23.9985 32.9165 22.9165 33.9985 22.9165 35.3332V38.6665C22.9165 40.0012 23.9985 41.0832 25.3332 41.0832H38.6665C40.0012 41.0832 41.0832 40.0012 41.0832 38.6665V35.3332C41.0832 33.9985 40.0012 32.9165 38.6665 32.9165H25.3332ZM27.8332 36.9998C27.8332 37.4601 27.4601 37.8332 26.9998 37.8332C26.5396 37.8332 26.1665 37.4601 26.1665 36.9998C26.1665 36.5396 26.5396 36.1665 26.9998 36.1665C27.4601 36.1665 27.8332 36.5396 27.8332 36.9998ZM26.9998 27.8332C27.4601 27.8332 27.8332 27.4601 27.8332 26.9998C27.8332 26.5396 27.4601 26.1665 26.9998 26.1665C26.5396 26.1665 26.1665 26.5396 26.1665 26.9998C26.1665 27.4601 26.5396 27.8332 26.9998 27.8332Z" clip-rule="evenodd"/><rect width="47" height="47" x="8.5" y="8.5" stroke="url(#paint1_radial_926_5882)" stroke-opacity=".15" rx="23.5"/><rect width="47" height="47" x="8.5" y="8.5" stroke="url(#paint2_linear_926_5882)" stroke-opacity=".5" rx="23.5"/><rect width="63" height="63" x=".5" y=".5" stroke="#fff" stroke-opacity=".1" rx="31.5"/><defs><linearGradient id="paint0_linear_926_5882" x1="38.987" x2="27.981" y1="26.813" y2="23.145" gradientUnits="userSpaceOnUse"><stop stop-color="#FF1E56"/><stop offset="1" stop-color="#9C51A1"/></linearGradient><radialGradient id="paint1_radial_926_5882" cx="0" cy="0" r="1" gradientTransform="translate(32 8) rotate(90) scale(61.7143)" gradientUnits="userSpaceOnUse"><stop stop-color="#fff"/><stop offset="1" stop-color="#fff"/></radialGradient><linearGradient id="paint2_linear_926_5882" x1="8" x2="18.5" y1="8" y2="27.5" gradientUnits="userSpaceOnUse"><stop stop-color="#fff"/><stop offset="1" stop-color="#fff" stop-opacity="0"/></linearGradient></defs></svg>